<svg version="1.2" xmlns="http://www.w3.org/2000/svg" viewBox="0 0 28 28" width="28" height="28">
	<title>Login</title>
	<style>
		.s0 { fill: none;stroke: #000000;stroke-miterlimit:100;stroke-width: 2 } 
		.s1 { fill: #000000 } 
	</style>
	<g id="Login">
		<path id="Ellipse 5" class="s0" d="m14 28c-7.7 0-14-6.3-14-14 0-7.7 6.3-14 14-14 7.7 0 14 6.3 14 14 0 7.7-6.3 14-14 14z"/>
		<g id="Group 3">
			<path id="Intersection 1" class="s1" d="m4.6 24.1c1-1 2.5-1.7 4-2.4 2.6-1.1 3.4-2 3.4-4 0-1.2-0.8-0.8-1.1-3-0.2-0.9-0.9 0-1-2.1 0-0.8 0.4-1 0.4-1 0 0-0.2-1.2-0.3-2.2 0-0.7 0.3-2.2 1.5-3.1 1.5-1.1 2.1-2.5 4.8-2.3-1.2 0.6-1 1.3-0.6 1.7 2.3 0.6 2.9 2.7 2.8 3.7-0.1 1-0.2 2.2-0.2 2.2 0 0 0.3 0.2 0.3 1-0.1 2.1-0.8 1.2-0.9 2.1-0.4 2.2-1.2 1.8-1.2 3 0 2 0.9 2.9 3.4 4 1.4 0.6 2.8 1.3 3.8 2.2-2.5 2.4-5.9 4-9.7 4-3.7 0-7-1.5-9.4-3.8z"/>
		</g>
	</g>
</svg>