<svg version="1.2" xmlns="http://www.w3.org/2000/svg" viewBox="0 0 224 105" width="224" height="105">
	<title>logo</title>
	<style>
		.s0 { opacity: .2;fill: #000000 } 
		.s1 { fill: #000000 } 
	</style>
	<g id="logo">
		<g id="Group 9">
			<path id="Path 267" fill-rule="evenodd" class="s0" d="m177.9 22.4v0.6c0 0.6-0.7 0.6-0.7 0.6 0 1.4-0.6 1.4-0.6 1.4-0.6 1.2-1.3 1.2-1.3 2.6l-0.7 0.6h-0.6c-1.3 3.2-3.9 5.1-5.8 7.7-3.3 2-5.2 3.9-9.1 5.8 0 0 0 0.7-0.7 1.4-1.2 0-1.2-2-1.9-3.3-0.6-0.7-1.3-1.9-1.9-3.3-0.7-2.5-1.9-4.4-3.3-6.4 0-0.6-0.6 0.7-0.6 0.7-0.6-1.3-0.6-2.6-0.6-2.6 0 0 0-1.3-0.7-1.3l-0.7-1.3h-1.2c-0.7 0-2 1.3-2.6 2-2.6 2.5-5.9 5.7-8.5 8.3-1.3 2-3.3 3.2-5.2 5.2-0.7 1.3-1.3 2-2.6 3.2-0.6 0.7-1.9 1.4-2.6 2.6-1.9 1.4-3.2 3.3-5.1 4.6-1.9 2-3.9 2.6-5.9 4.5q-0.3-0.3-0.6-0.6l-0.6 0.7 0.4 0.4q-0.6 0.5-1.4 1-0.2-0.1-0.4-0.2c0 0-0.4 0-0.2 0.7q-0.5 0.4-1 0.8 0-0.1 0-0.1h-1.4c0 0.6-0.6 0.6-0.6 0.6v0.6q0.2 0.1 0.3 0.2c-1.8 1.3-3.6 3.1-6.1 4.3-0.7 1.3-2 2.6-3.3 3.9h-0.7c-1.2 0.7-2.5 1.9-3.2 3.3l-1.9 1.2c0 0.7-0.6 1.4-0.6 1.4-2 1.9-3.9 3.2-5.2 4.5-0.6 0.7-0.6 1.3-1.3 1.3-0.7 0.6-0.7 1.3-0.7 2-0.6 0-1.2 0.6-1.9 0.6-0.7 2-1.9 3.2-3.3 3.9-0.6 1.3-1.9 2.6-2.6 3.9-1.2 1.3-1.9 3.2-2.6 4.5-0.6 0.7-1.2 1.3-1.2 1.3-0.7 1.3-0.7 2.6-1.4 3.2-0.6 0.7-1.2 1.9-1.9 3.3-0.7 0.6-1.3 0-1.3 0-3.2 1.9-7.1 2.6-11 1.9-1.3-1.3-3.9-1.3-4.5-3.3 0-1.9 1.3-2.5 2-3.8 1.2-0.7 1.9-1.9 1.9-1.9 0 0 0.6-1.3 1.3-2 0.6-0.6 1.9-1.9 2.5-3.2 1.3-1.3 2.6-2 2.6-3.2 2-0.7 2.6-2 4.6-3.3 0 0 0.6-0.7 0.6-1.3 1.3-0.6 2-1.3 2.6-2.6 2.6-2 5.8-3.9 8.4-6.5v-0.7c1.4-0.6 2.6-1.9 3.3-2.6 2.6-1.2 3.9-3.2 5.2-4.5 1.3-1.3 1.9-1.9 3.9-3.2 0 0 0.6-1.3 1.2-0.6 0.7-2 2-2.6 3.3-3.9 0.6-1.3 1.9-1.9 2.6-3.3 0.5-0.3 0.8-0.5 1-0.7-1.2-0.6-2.4-1.3-3.6-2.5-1.3-1.3-3.3-3.2-5.2-4.6-0.6-1.2-1.9-1.9-1.9-1.9-2-1.9-2.6-2.6-3.2-3.9-2-2-3.3-3.2-5.2-5.2-2.6-2.6-5.9-5.8-8.5-8.3-0.7-0.7-1.9-2-1.9-2h-2c-0.6 0 0 1.3-0.6 1.3l-0.7 0.7v2.5c-0.7 0.7-0.7-0.6-1.3 0-1.3 2-2 3.9-3.2 6.4-0.7 1.4-1.3 2.6-1.3 2.6-1.3 2-0.7 4-2.6 4-0.6-0.7 0-1.4 0-1.4-3.8-1.9-6.4-3.8-9-5.8-2.6-2.6-5.2-4.5-6.6-7.7h-0.6l-0.6-0.6c0-1.4-0.7-1.4-1.4-2 0 0 0-0.6-0.6-1.3 0 0 0-0.7-0.6-1.3v-0.6h0.6c1.3 0 2-1.4 3.9-1.4l0.7-0.6c-0.7 0.6 0 0.6 0 0.6l0.6-0.6c0 0 0.6 0 1.3-0.6 1.3-0.7 1.9-1.4 3.9-1.4l0.6-1.9c0.7 0.7 1.4 0 1.4-0.7 0.6 0 0.6 0.7 1.2 0 0.7-0.6 1.4-0.6 2-1.2 0 0 0.6 0.6 1.3 0-0.7-0.7-0.7-1.4-0.7-1.4 2-3.2 3.9-4.5 5.8-6.4 1.9-1.4 3.9-7.1 7.1-4.6 0.7-0.6 1.4-1.3 2-1.3 0 0 0.6 0.7 1.3 0.7h0.7c0.6 0.6 0.6 1.3 1.2 1.3 0 0.6 0.7 1.3 1.4 1.3v0.6c1.2 1.3 1.9 2.6 3.2 3.2l0.6 0.7c0.7 1.3 1.4 1.3 1.4 1.3 0.6 2.6-0.7 2.6-0.7 3.9 1.3 1.3 3.3 2.6 4.5 4.5 0.7 0.7 1.4 1.4 2 2.6 1.3 0.7 1.9 1.4 1.9 2.6 1.3 0.7 2 1.4 2 2.6 1.3 0 1.9 1.4 1.9 1.4 1.3 1.2 2.6 1.9 3.2 3.8 1.3 0.7 1.9 1.3 2.6 2.6 0.7 0.6 0.7 1.3 0.7 1.3 0.6 1.2 1.9 1.9 2.6 2.6 0 0 0 1.2 0.6 1.2 0 0 0 0.7 0.6 1.4l1.4 1.9c0.6 0 0.6 0.7 0.6 0.7l2 1.9c0.6 0.7 0.6 1.3 0.6 1.3l-0.6 0.6h-1.4c-0.6-0.6-0.6-1.9-1.9-1.9 0 1.3 1.3 1.9 1.3 1.9v2c-0.6-0.6-0.6-1.3-0.6-1.3-1.4-1.3-2.6-1.9-3.3-3.3v-0.6c0 0-1.3 0-0.7-0.6 0.7-1.4 0.7 0.6 2 0 0.6-0.7-1.3-0.7-1.3-0.7-1.3-1.3-2.6-2.6-4.5-2.6 1.2 3.3 4.5 4.5 5.8 8.5 0.6 0.5 1.2 1.1 1.8 2.1l0.2-0.2c0-0.7 0.6-0.7 0.6-0.7l0.6-0.6c0.7-0.6 2-1.3 2-1.3 0.6-1.3 0.6-1.9 1.3-2.6l1.9-1.9c0.7 0 0.7-0.7 0.7-0.7l1.3-1.9c0.6-0.7 0.6-0.7 1.3-1.4l0.7-1.2c0-0.7 1.2-1.4 1.2-2.6 1.4 0 1.4-0.7 1.4-0.7 0.6-1.9 1.9-2.5 1.9-2.5 1.3-2.6 2.6-3.3 3.2-4.5 0.7 0 1.3-1.4 2.6-1.4 0.6-1.2 1.3-1.9 1.9-2.6 0-1.2 1.3-1.9 1.3-1.9 1.3-1.9 2-2.6 3.2-3.3 1.4-1.9 2.6-3.2 4-4.5 0-1.3-0.7-1.3-0.7-3.3 0 0 0.7-0.6 1.3-1.2 0 0 0.6-0.7 0.6-1.4 1.4-0.6 2-1.9 3.3-3.2v-0.6c0.7 0 1.3-0.7 1.3-1.3 0.6 0 0.6-0.7 1.3-1.3h0.7c0 0 0.6-0.7 1.2-0.7 0 0 1.4 0.7 2 1.3 3.2-2.5 5.2 3.2 7.8 4.6 1.3 1.9 3.2 3.2 5.1 5.8 0 0 0 1.3-0.6 2 0.6 0.6 1.2-0.7 1.9 0 0 0.6 0.7 0.6 1.3 1.2 0.6 0.7 0.6 0 1.3 0 0.7 0.7 0.7 1.4 1.3 0.7l0.6 1.9c2 0 2.6 0.7 4 1.4 0.6 0.6 1.2 0.6 1.2 0.6h0.7l0.7 0.6c1.9 0 2.6 1.4 3.8 1.4zm-62.8 33.6c2.3 2.3 4.7 4 7.1 5.9 1.3 0.6 2 1.3 3.2 2.5v-0.6c-1.9-1.3-2.6-2.6-3.8-3.2-1.4-1.9-3.3-3.3-4.6-5.2 0 0 1.3 0 1.3-0.7 1.3 1.4 1.9 2.6 3.3 3.3 0.6 1.3 1.9 1.9 2.6 3.9 1.2-0.7 1.2 0.6 1.9 0.6 1.3 1.3 1.9 1.9 3.2 3.2 1.9 1.3 3.2 3.3 5.2 4.5 0.6 0.7 1.9 2 2.6 2.6 0 0 0.6 0 1.2 0.7 2 2.6 5.2 4.5 7.8 6.5 0.7 1.3 1.4 2 2.6 2.6 0.7 0.6 0.7 0.6 1.4 1.3 1.2 1.3 1.9 2.6 3.8 3.3 0.7 1.2 2 1.9 2.6 3.2 0.7 1.3 2 2.6 2.6 3.2 0.7 0.7 0.7 1.3 0.7 1.3 0 0 1.9 1.9 2.5 2.6 0.7 1.3 2 1.9 2 3.8-0.7 2-3.2 2-4.5 3.3-3.3 0.7-7.8 0-10.4-0.7l-1.9-1.2c-0.7-1.4-1.4-2.6-2-3.3 0 0-0.6-1.9-1.3-2.6 0 0-0.7-1.2-1.3-1.9-0.6-1.3-1.3-3.2-2.6-4.5-0.6-1.3-2-2.6-2.6-3.9-1.3-0.7-2.6-1.9-3.2-3.9-0.7 0-0.7-0.6-0.7-0.6-1.3-0.7-1.3-1.4-1.3-2-1.3 0-1.3-0.6-1.9-1.3-1.3-1.3-3.2-2.6-4.5-4.5-0.7 0-0.7-0.7-1.3-1.4-0.6-0.6-1.3-1.2-2-1.2-0.6-1.4-1.2-2.6-2.6-3.3h-1.2c-1.4-1.3-2.6-2.6-3.3-3.9-2.5-1.2-4.3-3-6.2-4.3q0.2-0.1 0.3-0.2l0.7-0.6q0.4-0.3 0.7-0.5c0.1 0.5 0.6 1.1 1.2 1.8 2.6 1.3 4 3.8 6.6 5.1 0.6 0.7 1.2 2 2.6 2 0.6 1.3 2.6 2.5 3.8 3.9v0.6l0.7 0.6c0.6 0.7 0.6 0.7 1.3 1.4 0.6 0.6 1.9 1.2 2.6 1.9v0.7c0 0 1.2 0.6 1.2 1.2 0 0 0 0.7 0.7 0.7 0 0.7 0.6 1.3 1.3 1.3-2-3.9-4.5-6.5-7.1-9.8-1.3-0.6-2.6-1.9-3.9-3.2-2.6-1.9-5.2-4.5-7.8-6.4-0.6-1.3-2-1.9-2-1.9q-0.1-0.4-0.2-0.7 0.3-0.2 0.7-0.5c1.1 0.8 2.2 1.9 2.8 3.1 0 0 1.9 0.6 1.9 1.3 0.7 0.6 1.4 0.6 2 1.3l2 1.9 1.2 1.3h0.7c0.7 0.6 1.9 1.9 2.6 3.2 2.6 2 4.5 4.6 6.4 7.2 2 1.9 3.2 5.2 5.2 7.1l-0.6-1.9c-1.4-1.4-2-2.6-2.6-4-0.7-0.6-1.3-1.2-1.3-2.6-1.3-1.2-2-1.9-2.6-3.8 0-1.4 1.3 0 2.6 0-1.3-2-3.9-3.3-5.8-4.6-2.6-2.6-5.8-4.5-9.1-7.1-1.3-0.6-1.9-1.2-3.3-2.6l-0.8-0.8q0.4-0.2 0.8-0.4 0-0.1 0.1-0.1zm-11.1-3.2c0-0.6 0.5-1.1 1-1.6-0.5-0.7-1.1-1.7-1.6-1.7-0.7-1.9-2-2.6-2.6-3.8 0-0.7-0.7-0.7-0.7-0.7 0 0-0.6-0.7-0.6-1.3-1.3-0.6-0.7-2-1.9-2 0-0.6-1.3-1.2-0.7-2.6 1.3-1.2 3.2 0.7 5.2 0.7-0.7-1.3-2-2.6-2.6-3.9h-0.7c0 0-0.6-0.6-0.6-1.3-2.6-0.6-4.5-1.3-6.5-2.5-0.6-0.7-1.2-0.7-1.9-1.3 0 0-0.7-1.3-1.9-1.3-0.7-1.9-2.6-3.9-4-5.2v-1.3c-0.6-0.6-1.2-1.3-1.2-1.3-2-1.9-2.6-4.5-4.6-5.2 0 0 1.3 1.3 0 1.9 0.6 1.4 2.5 2.6 2.6 4.5q-0.2-0.3-0.6-0.5c-0.7-0.7-1.4-0.7-1.4-0.7-0.6-1.9-1.2-0.7-1.2-1.9-1.4 0-0.7 1.2 0 1.2l1.2 2c0.7 0.6 1.4 1.3 2 2l1.3 1.9c0.7 0.7 1.3 1.3 1.9 1.9 0 0-1.2 0-1.2 1.3 1.2 0 2.6 0 2.6 1.3-0.7 1.3-1.4 0-2-0.6l-0.6-0.7c-0.7-0.6-1.4-0.6-1.4-0.6 0 0-0.6-0.7-0.6-1.3q0.4-0.2 0.6-0.2c-0.1-1.8-1.2-1.9-1.2-3-1.4-0.7-2-2-2.6-3.3-0.7 0.7 0 1.3-0.7 1.3 0 0.6-1.3 0-1.3 0.6 0.6 2 2.6 2.6 2.6 4.6 0 0.6 0-0.6 0-0.6 0 1.2 0.6 1.2 0.6 2.5 0 0 0.7 0.7 1.4 0.7v0.6l1.2 1.9h0.7v0.7l0.7 0.6c0.6 0.7 0.6 0.7 1.2 0.7v0.6c0 0 2 0.6 2.6 2 0 0 0.7 1.2 1.4 1.2-0.7-1.9-2-3.2-3.3-4.5l-1.9-1.9c-0.7 0-2-0.6-2-1.9 1.3-0.7 2 1.3 2.6 1.9 0.6 0 1.3 0.6 1.3 0.6 0.7 0.7 1.3 0.7 1.3 0.7 0.6 0.6 0.6 1.3 0.6 1.3 0.7 1.2 1.4 1.2 1.4 1.2 0 0 0.6 0.7 1.2 1.4 0 0 0.7 1.9 0.7 3.2 0.7 0 1.3 0.6 1.3 2 0.6 0.6 1.3 1.2 2 1.9 0 0-0.7-0.7-0.7-1.3 0 0-0.7-2-1.3-2.6-0.6-1.3-1.3-3.2-2-3.9v-0.7c0-0.6-0.6-1.2-0.6-1.2 0-1.3-1.3-1.3-0.6-2.6 0-0.6 0.6 0.6 0.6 1.3 0.6 0 0.6 0.6 0.6 0.6 0 0.7 0.7 0.7 0.7 0.7 0.7 1.2 1.3 2.6 1.9 3.8 0 0 0.7 2 1.4 3.3 0.6 0.7 1.2 1.3 1.2 1.9 1.3 1.4 2.6 3.3 3.9 4.6v0.6c1.3 0.7 1.3 2 3.2 2l0.7 2c0 0 1.3-0.7 1.9-0.7zm39.5-29.2c0-0.6-1.2 0-1.2-0.6-0.7 0 0-0.6-0.7-1.3-0.7 1.3-1.3 2.6-2.6 3.3 0 1.1-1.2 1.2-1.3 3q0.2 0 0.6 0.2c0 0.6-0.6 0.6-0.6 0.6 0 0-0.6 0.7-1.3 1.3l-0.7 0.7c-0.6 0.6-1.2 1.9-1.9 0.6 0-1.3 1.3-1.3 2.6-1.3 0-1.3-1.3-0.6-1.3-0.6 0.6-1.3 1.3-1.9 2-2.6l1.9-1.9c0-0.7 0.7-1.4 1.3-2l1.3-2c0.7 0 1.3-1.2 0-1.2 0.7 1.2-0.7 0-1.3 0.6 0 0-0.6 1.3-0.6 2-2 0.6-1.4 1.9-3.3 2.6 0.7-1.4 0.7-2 1.9-2 0-2 2-3.2 2.6-4.6-0.6-0.6 0-1.9 0-1.9-1.9 0.7-2.6 3.3-4.5 3.9 0 0-0.7 2-1.3 2v1.9c-1.3 1.3-3.2 3.3-3.9 5.2 0 0-1.2 0.6-1.9 1.3-0.6 0.6-0.6 0.6-1.3 1.3-1.9 1.2-4.5 1.9-6.4 2.5-0.7 0.7-0.7 1.3-1.4 1.3h-0.6c-0.6 1.3-2 2.6-2.6 3.9 2 0 4.6-1.9 5.8-0.7 0 1.4-1.2 2-1.2 2.6-1.4 0-0.7 1.4-2 2 0 0.6 0 0.6-0.6 1.3 0 0-0.7 0-0.7 0.7-0.7 1.2-1.9 1.9-2.6 3.8-1.3 0.7-1.9 3.3-3.9 2.6 0.6-1.2 2.6-2.6 3.9-3.8 0.7-4 4.5-5.2 5.2-8.5-1.9 0-2.6 1.3-4.5 1.9 0 0-1.4 0.7-0.7 1.4 0 0 0.7-1.4 1.9 0l-0.6 0.6c-0.6 0 0 0.6 0 0.6h-0.6c-0.7 1.4-2 2-2.6 3.3-1.4 1.3-2.6 2.6-4 3.9 0 0-0.6 0.6-0.6 1.3-0.6 0-0.6 0.7-0.6 1.3 0 0-2 1.3-2.6 2-0.7 0.6-1.4 0.6-1.4 0.6-1.9 2-2.5 2.6-3.8 3.2-3.2 2.6-5.8 4.5-9.1 7.1-1.9 1.3-4.5 2.6-5.8 4.6 1.3 0 2.6-1.4 3.2 0-1.2 1.9-1.9 2.6-3.2 3.8 0 1.4-0.6 2-1.3 2.6-0.7 1.4-1.3 2.6-1.9 4l-1.4 1.2c2-1.2 4-4.5 5.9-6.4 1.3-2.6 3.9-5.2 5.9-7.2 0.6-1.3 1.9-2.6 2.5-3.2h0.7c0.6-0.7 1.3-1.3 1.9-1.3 0 0 0.6-1.3 1.3-1.9 0.6-0.7 1.3-0.7 1.3-0.7l1.9-1.9c1.9-1.3 2.6-2.6 3.9-3.3 0 0 0.6-1.2 1.3-0.6-0.7 1.3-1.9 2.6-3.3 3.9-2.5 1.9-5.1 4.5-7.7 6.4-1.3 1.3-2.6 2.6-3.8 3.2-2.6 3.3-5.2 5.9-7.2 9.8 0.6 0 1.3-0.6 2-1.3v-0.7c0.6-0.6 0.6-0.6 1.2-0.6v-1.3c0 0 2-1.3 2.6-1.9 0 0 0.7-0.7 1.4-1.4l0.6-0.6c0 0 0-0.6 0.6-0.6 1.3-1.4 2.6-2.6 3.3-3.9 1.2 0 1.9-1.3 1.9-1.3 3.2-2 4.5-4.5 7.1-5.8 1.3-1.9 2.6-3.3 4.6-4.5l0.6 0.6 0.6-0.6c0.7-0.7 1.4-1.4 2-1.4h0.6c0.7-0.6 0.7-1.2 0.7-1.2h1.3l0.6-2c2 0 2-1.3 3.3-2v-0.6c1.3-1.3 2.6-3.2 3.9-4.6 0-0.6 0.6-1.2 1.3-1.9 0.6-1.3 1.3-2.6 1.3-2.6 0.6-1.9 1.3-3.3 1.9-3.9 0 0 0.7-0.6 0.7-1.3l0.6-0.6c0-0.7 0.6-1.9 0.6-1.3 0.7 1.3-0.6 1.3-0.6 2.6 0 0-0.6 0.6-0.6 1.2v0.7c-0.7 0.7-1.3 2.6-2 3.9-0.6 0.6-0.6 2-1.3 2.6q0 0.1 0 0.2l1.3-0.8c0-1.4 0.7-2 0.7-2 0.6-1.3 1.3-2.6 1.3-2.6 0.6-1.3 1.2-1.3 1.2-1.3 0 0 0.7-0.7 0.7-1.3 0 0 0.6-1.3 1.3-1.3 0 0 0.6-0.6 1.3-1.3 0 0 0.6-0.6 1.2-0.6 0.7-0.6 1.4-2.6 2.6-1.9 0 0.4-0.1 1.9-0.3 2.2 0.3-0.5 0.3-0.9 0.3-0.9 0 0 0.7-0.7 0.7-1.3h1.3c0-2 1.3-2 1.3-3.2 0 0-0.7 1.2-0.7 0.6 0.7-2 2.6-2.6 2.6-4.6zm-5.5 9.4q0 0 0 0 0 0 0 0zm-0.3-5c-0.2 0.1-0.3 0.3-0.4 0.6l0.4-0.4q0-0.1 0-0.2zm-1.3 1.5c0.5-0.3 0.7-0.6 0.9-0.9zm-9.7 14.5l-0.7 0.4c0 0 0.5 0 0.7-0.4zm9.7-11.2l-1.9 1.9c-1.4 1.3-2.6 2.6-3.3 4.5 0.7 0 0.7-1.2 1.9-1.2 0-1.4 1.4-2 1.4-2l0.6-0.6c0.6 0 0.6 0 0.6-0.7 0 0 0.7 0 1.3-0.7v-0.6h0.7c0.1-0.1 0.1-1.4 0.2-1.5-0.4 0.6-1.1 0.9-1.5 0.9zm39.5-9.7c-1.3 0-2-0.7-3.3-0.7-0.6 0.7-1.3 1.3-1.9 2.6 0 0-0.6 1.3-1.9 1.3 0 1.3-1.3 1.9-2.6 1.9 0 0 0.6-1.3-0.6-0.6 0 0 0.6 0.6 0.6 1.2l-1.3 2c-0.7 0.6-1.9 1.3-1.9 1.3-1.4 0.7-2.6 1.3-2.6 1.3-1.4 1.3-2.6 2-4 3.2 0 1.4 0.7 2.6 1.4 4 1.9 0 2.6-1.4 3.8-1.4 0-0.6 0-1.2 0.7-1.2h0.7c1.2-1.4 3.2-2.6 5.1-4 1.3-1.9 3.2-3.8 5.2-6.4 0-0.7-0.7-0.7-0.7-0.7 0.7-1.3 1.3-1.3 2-0.6 0-1.3 1.3-2 1.3-3.2zm-14.3 4.5c0 0 0-0.7 0.7-0.7v-5.1c-0.7 1.9-1.3 3.8-0.7 5.8zm-1.2-2.6c0 1.3-1.4 2.6-0.7 3.2 0 0 1.3-1.9 0.7-3.2zm-0.7-9.8q0 0.1 0 0.1c0.3 0 0.2 0 0-0.1zm-0.7-0.5c0 0.3 0.4 0.5 0.7 0.5 0-0.1-0.1-0.5-0.7-0.5zm0 9.6c0 2-1.2 3.9-0.6 5.9 0.6-2 0.6-4.6 0.6-5.9zm-4.5-16.2c0 0-0.7-1.2-1.9-1.2-0.7 1.2 1.2 2.6 1.9 1.2zm-3.3-2.6v0.7c1.4 0 0.7-0.7 0.7-0.7zm-0.6-1.9v0.7c0.6 0 0.6-0.7 0-0.7zm-29.1 30.4c2.6-1.2 5.2-2.6 7.8-3.8 1.2-2 2.5-3.3 4.5-5.2v-0.7c0.6-0.6 0.6-1.9 0.6-1.9 1.3-0.6 1.3-1.9 1.3-1.9 1.3-2.6 3.2-3.2 3.9-5.2-1.4 0-1.4 0.6-2 1.3 0 0-0.6 1.3-1.3 1.9 0 0-0.6 0.7-1.3 1.4-0.6 0.6-1.2 1.9-2.5 2.5-1.3 1.9-3.2 3.2-4.6 5.2l-1.9 1.2h-1.3c-0.6 0.7-1.3 2-2 2.6 0 0-1.9 1.4-1.2 2.6zm5.8-7.1c2-1.3 3.2-3.2 4.5-4.5 0.7-1.3 1.3-1.9 2-2.5 0.6-0.7 1.9-2 2.5-2.6v-0.3c-2.7 2.4-5.6 5.3-8.4 8.6 0 0-1.2 0.7-0.6 1.3zm9-9.9q0.4-0.4 0.8-0.7c-0.2 0.2-0.5 0.3-0.8 0.3zm1.3-1.1q-0.2 0.2-0.5 0.4c0.3-0.2 0.5-0.4 0.5-0.4zm-44 48.6c1.3-1.3 2-2 3.2-2.6 3.3-1.9 5.8-4.5 9.1-7.1 0 0-0.7-0.6 0-1.3 0.6 0 0.6-0.6 0.6-0.6 1.3 0 0.6-0.7 1.3-1.3 1.3-0.6 1.9-2 3.3-2.6 1.2-1.3 1.9-2.6 2.6-3.9-1.4 0-1.4 1.3-2 1.9-2 2-4.6 3.3-6.5 5.9-0.6 0-0.6 1.3-1.9 1.3-1.3 2.5-3.9 3.8-5.1 6.4-2 0.7-2.6 1.9-4.6 2.6zm-11.7 16.9v-1.3c0.7-0.6 0.7-0.6 1.3-1.3v-0.7l0.6-0.6 0.7-0.6c0-0.7 0.7-1.4 0.7-1.4 0 0 0.6-0.6 0.6-1.2 0.6-0.7 1.3-1.4 1.3-1.4-1.9 0.7-5.2 1.4-6.5 4 0.6 0 1.3 0 2 0.6-0.7 1.3-1.4 2.6-2 3.9-0.6 0.7-1.3 1.9-2.6 2.6-0.6 1.9-2 2.6-2.6 4.5-1.3 1.3-1.9 3.9-3.2 5.2 0 0-0.7 1.9-1.3 1.9-0.6 2-1.3 2.6-1.9 4.6-0.7 0-1.3 1.9-2 1.2 1.3-3.2 3.3-5.8 4.5-7.7 1.3-3.9 3.9-5.8 5.2-9 1.3-1.4 1.9-2 2.6-3.3 0.7-1.3 1.3-2.6 1.9-3.9-1.9-0.6-3.2 1.3-5.2 2-1.9 1.9-3.8 3.8-5.7 5.2l0.6 1.9c-0.6 0.6-0.6 1.9-1.3 2.6 0 1.9-1.3 1.9-1.3 3.8 0 0-1.3 0.7-1.3 2-1.3 0-1.9 1.2-1.9 1.2l-0.6 0.7v0.7c0 0-1.4 0.6-2 1.2 0 0 0 0.7-0.6 1.4 0 0-2 1.2-3.3 0 0-1.4 0.7-2.6 1.9-2.6 0.7 0 0.7 1.2 0.7 1.2 1.3-0.6 2.6-1.2 3.3-2.6 0.6-0.6 1.2-1.9 2.5-2.5 0.7-2.6 2-4.5 2.6-7.8 0 0-1.3 0.7-1.3 1.3l-0.6 0.7c0 0.6-1.3 1.3-1.3 1.9-0.7 0 0 0.6-0.7 0.6 0 0.7-0.6 1.3-0.6 2-0.6 0.6-1.3 1.3-2 1.9-1.2 0.7-1.2 2.6-2.6 2.6v-1.3c0.7-0.6 2.6-1.9 2-3.2-1.3 3.2-4.6 5.2-6.5 8.4 0 0.6 1.3 0.6 0.7 1.3 1.9 0.7 2.6 1.3 3.8 1.3 0.7 0 0 0 0 0l1.4-0.6c0.6-0.7 1.2-1.4 1.9-2 1.9-2.6 4.5-5.2 5.8-7.8 0.7-0.6 0.7-1.3 0.7-1.3 0 0 0.6-0.6 1.2-1.3 0 0 0-0.6 0.7-1.2 1.3-2.6 3.2-5.2 3.8-7.8 1.4 0.7 0.7 1.9 0.7 1.9-1.3 2-1.9 3.3-2.6 3.9v0.7c-0.6 0-0.6 0.6-0.6 0.6 0 0-0.7 1.3-1.3 1.3v0.6l-0.7 0.7c-0.6 1.3-1.9 3.2-2.5 4.5l-0.7 0.6-0.6 0.7c0 0.7 0 0.7-0.7 0.7 0 0-0.6 0.6-0.6 1.2v0.7c-0.7 0.7-1.9 1.3-2.6 2.6l-0.7 0.7c2.6 0 3.9 0.6 5.9 0v-0.7c1.3-5.2 4.5-8.4 7.7-11 1.3-3.9 3.3-7.1 5.2-9.7zm-7.8 13.6c-1.9 1.2-2.6 3.8-3.8 5.8v0.6c1.2-0.6 1.2-1.2 1.2-1.2 0.7-0.7 1.3-2 1.3-2 0.7-2 1.3-2.6 1.3-3.2zm7.1-9.7c-1.2 0-1.2 1.3-1.2 1.3 0 0 0.6-0.7 1.2-1.3zm33.7-33.7c0-0.6 0.7 0 1.4-0.6 0.6 0 1.2-1.4 1.9-2 1.3-1.3 1.3-2.6 2.6-3.9 0.7-1.9 1.9-3.3 3.3-5.2 0.6-1.3 1.2-3.3 2.6-4.5-0.7-0.7-0.7 0-1.4 0.6h-1.2c-1.4 0.6-2 1.3-3.3 1.3 0-1.9 2.6-1.3 3.3-3.3 0.6 0 0.6 0.7 0.6 0.7 1.3-0.7 2-1.3 3.2-1.3 1.4-0.6 2-2 3.3-2.6 0 1.3-0.7 1.3-1.3 2 0 0-1.3 1.2-2 1.9-1.2 2.6-1.9 5.2-4.5 7.1-1.3 4-3.9 6.6-6.5 9.8-0.6 0-1.3 0.6-2 0zm35.1-39.5c0 0 0-2-0.7-2.6 0 1.2 0 2.6-0.7 3.8 0 0.7 0 2-0.6 2 0-1.3 0.6-3.2 0-4.6 0 0.7 0 1.4-0.6 2-0.7-0.6 0.6-2 0-3.2 0 0 0-1.4-0.7-1.4 0 1.4 0 3.3-0.7 4.6-1.2-0.6-0.6-2-0.6-2l-0.6 0.7c0 0-0.7 0.7 0 1.3v2c-0.7 0.6-1.4 0.6-1.4 0.6 0 0 0.7 0.6 0.7 1.3 0 2.6 1.9 3.3 3.3 5.2h0.6c0 0 0.6-3.9 0.6-5.2 0-1.9 0.7-3.3 1.4-4.5zm5.2 13.6c0.6-4.6 1.2-8.4 1.2-13-0.6-0.6-1.2-0.6-1.9-1.3-0.7 1.3 0 3.3-0.7 4.5 0 0.7 0 1.4-0.6 1.4 0-2 0.6-4.6 0.6-7.2-1.9 0.6 0 3.9-1.9 3.9-0.7-0.7 0.7-2.6 0-3.9-0.7 2 0 4.6-1.3 5.8 0-1.9 0.6-3.8 0.6-6.4v-0.7c-1.2 3.3-1.2 6.5-1.9 9.7 0 0 1.3 0 0.7 0.7 0.6 1.9-0.7 3.9 0 5.8 0.6-1.9 0-4.5 1.2-5.8v-1.9c0-1.4 0-2.6 1.4-2.6 0 1.9-0.7 3.8-0.7 5.8v1.9c0 2-1.3 4.5 0.7 5.8 0-1.3 0-3.2 0.6-3.8 0.6 1.9-1.3 4.5 0 6.4 0.6-1.3 0.6-2.6 0.6-3.9 0.7-1.2 0-2.5 0-2.5 1.4-0.7 0.7 1.9 1.4 1.3zm1.2 1.9c0 0 0 1.9 0.7 2.6 0-1.3 0.7-2 0.7-3.3 0.6-1.9 0.6-4.5 0.6-6.4-0.6 1.9-0.6 4.5-1.3 5.8-1.3 0-0.7-2.6-0.7-2.6 0.7-1.9 1.4-3.8 1.4-6.4l0.6-0.7c-0.6-0.7-0.6-1.9-0.6-1.9-0.7-0.7-0.7 0.6-0.7 0.6 0 5.8-1.3 10.4-1.3 14.2 0 0 0-1.9 0.6-1.9zm7.2 2.6h0.6c-0.6-0.7 0-2 0-2-0.6 0.7-1.3 0-1.3 0 0 0.7-0.6 2 0.7 2zm-83-7.2q0 0 0.1 0.1-0.1 0-0.1 0 0-0.1 0-0.1zm2 2c-1.5-0.5-1.5-1.3-1.9-1.9 1.2 0 1.2 0.6 1.9 1.9zm-1.4 3.1q0 0.1 0 0.1l1.4 1.3c-0.6-0.5-0.7-1.4-1.4-1.4zm20.8 23.5c-2.6-3.2-5.2-5.8-6.4-9.8-2-1.9-3.3-4.5-4.6-7.1l-2-1.9c-0.6-0.7-1.2-0.7-1.2-2 1.2 0.6 1.9 2 3.2 2.6 1.3 0 2.6 0.6 2.6 0.6 0.6 0.7 1.3 0 1.3 0 0.7 2 3.3 1.4 3.3 3.3-1.4 0-2-0.7-3.3-1.3 0 0-0.7 0-1.9-0.6 0 0 0-0.7-0.7 0 1.3 1.2 1.9 3.2 2.6 4.5 1.3 1.9 2.6 3.3 3.3 5.2 1.2 1.3 1.9 2.6 2.5 3.9l2.6 2c0 0.6 0.6 0 0.6 0.6-0.6 0.6-1.9 0-1.9 0zm-33.7-47.3c0 0 0-0.7 0.7-0.7-0.7 0-1.3 0.7-0.7 0.7zm-1.3 1.9c0.7 0 0.7 0 1.3-0.7 0 0-0.6-0.6-1.3-0.6zm-2.5 1.9c0.6 1.4 2.5 0 1.9-1.2-1.3 0-1.3 0.6-1.9 1.2zm-1.4 28.5c-1.2-1.2-2.6-1.9-3.8-3.2 0 0-2-0.6-2-1.3-1.3 0-2-0.7-3.2-1.3l-1.4-1.9c0-0.7 1.4-0.7 1.4-0.7-1.4-1.3-1.4 0-1.4 0-1.2 0-2.6-0.6-2.6-1.9-1.2 0-1.2-0.6-1.2-0.6-1.4-2-2-2.6-2-2.6-2-0.6-2.6 0-3.9 0 0 1.3 1.3 1.9 1.3 3.2 0.6-0.6 1.3-0.6 2 0 0 0-0.7 0.6-0.7 1.3 1.9 2.6 3.9 4.5 5.9 6.4 1.9 1.4 3.2 2.6 4.5 4h1.3c0 0 0.6 0.6 0.6 1.2 0.7 0 1.4 1.4 3.3 1.4 0.7-1.4 1.3-2.6 1.9-4zm-3.8-21.3c0 0 0.6 0 0.6-0.6-0.6 0-0.6 0.6-0.6 0.6zm0 12.9c0.6-0.6 0-1.9-0.7-3.2-0.7 1.3 0 3.2 0.7 3.2zm-2.6-1.3c0.6 0 0.6 0.7 0.6 0.7 0.6-1.9 0-3.9-0.6-5.8zm-2 3.2h1.3v-1.9c0 0-0.7 0.6-0.7 0 0 0 0 1.3-0.6 1.9zm5.8 0c0.7-1.9 0-3.9-0.6-5.8 0 1.3 0.6 3.9 0.6 5.8zm2.6-0.6q0-0.3 0.1-0.6-0.1 0.3-0.1 0.6zm-1.2-13.7c0 0 0-1.9-1.4-1.9 0.7 0.7 0.7 1.9 0 2.6 0.7 0 0.7 0.7 0.7 0.7 0 2.6 0.7 4.5 0.7 6.4 0.6 0 1.2 2.6 0 2.6-0.7-1.2-0.7-3.8-1.4-5.8 0 2 0 4.6 0.7 6.5 0.7 1.3 0.7 1.9 1.3 3.2 0.6-0.6-0.6-1.9 0-2.5 0.4 0 0.7 0.1 0.7 0.3 0.1-3.5-1.3-7.6-1.3-12.1zm1.3 12.1q0 0.5 0 1c0-0.3 0.1-0.7 0-1zm6.4-9.5c-0.6-3.2-0.6-6.4-1.3-9.7v0.7c-0.6 2.6 0.7 4.5 0 6.4-1.3-1.2-0.6-3.8-1.3-5.8-0.6 1.3 0.7 3.2 0 3.9-1.3 0 0-3.3-1.9-3.9 0.6 2.6 0.6 5.2 0.6 7.2 0 0-0.6-0.7-0.6-1.4-0.6-1.2 0-3.2-0.6-4.5 0 0-1.4 0.7-2 1.3 0 4.6 0.6 8.4 1.3 13 0.7 0.6 0-2 0-2 1.3 0.7 0.7 2 1.3 3.3 0 1.3 0.6 2.6 0.6 3.9 1.3-2-0.6-4.6 0-6.5 1.3 0.7 0.7 2.6 0.7 3.9 1.9-1.3 0.6-3.9 0.6-5.8 0-0.7 0.7-1.4 0.7-1.4-0.7-2.6-1.3-4.5-1.3-6.4 1.3 0 1.3 1.2 1.3 1.9v2.6c1.3 1.3 1.3 3.9 1.3 5.9 0.6-2-0.7-4 0-5.9 0-0.7 0.6-0.7 0.6-0.7zm-5.8 12.4c0 0 0-1.3-0.7-1.3v1.3zm11.6-15c0 0-0.6-0.6-0.6-1.2v-2c0-0.6-0.6-0.6-0.6-0.6-0.7-0.7 0-2-0.7-2 0 0 0.7 2-0.6 2.6 0-1.3-0.7-3.2-0.7-4.6l-0.6 1.4c-0.7 1.2 0.6 2.6 0 3.2-0.7-0.6-0.7-1.3-0.7-2-0.6 1.4 0.7 3.3 0 4.6 0 0-0.6-1.3-0.6-2-0.6-1.2 0-2.6-0.6-3.8-0.7 0.6 0 1.9 0 1.9 0 1.9 0.6 3.3 0.6 5.2 0 1.3 0.6 3.9 0.6 3.9l0.7 1.3c1.3-1.9 3.2-2.6 3.2-5.2 0-0.7 0.6-0.7 0.6-0.7zm20.8 15.6c-0.6-0.6-1.3-1.9-1.3-1.9l-1.9-0.7c-0.7 0-1.4-0.6-2-1.2-1.3-2-3.2-3.3-4.6-5.2-1.2-0.7-1.9-2-2.6-2.6l-1.2-1.4c-0.7-0.6-0.7-1.2-0.7-1.2-1.3-1.4-1.3-2-2.6-2 0.7 2 2.6 2.6 3.3 5.2 0 0 1.2 1.3 1.2 2 0 0 0.7 1.2 2 1.9v0.7c1.3 1.9 2.6 3.2 3.9 5.1 2.6 1.3 5.2 2.6 7.8 3.9 0.7-1.3-0.7-2-1.3-2.6zm-13.6-14.9v0.7c1.2 0.6 1.9 1.9 2.6 2.6 0.6 0.6 1.2 1.2 1.9 2.6 1.9 1.2 3.3 3.2 4.5 4.5 1.4-0.7-0.6-1.3-0.6-1.3-2.6-3.9-6.5-7.2-9.1-10.4 0 0 0 1.3 0.7 1.3zm80.4 84.2c-2-3.2-4.6-5.1-6.6-8.4-0.6 1.3 1.4 2.6 1.4 2.6l0.6 0.7v1.2c-1.3 0-1.3-1.9-2.6-2.5l-1.3-2c-0.7-0.6-1.3-1.3-1.3-1.9l-0.6-0.6c0-0.7-0.7-1.4-1.4-2 0 0 0-0.6-0.6-0.6 0-0.7-0.6-1.4-1.3-1.4 0.7 3.3 1.9 5.2 2.6 7.8 1.3 0.7 1.9 2 2.6 2.6 1.3 1.3 1.9 1.9 2.6 2.6 1.3 0 0.7-1.3 0.7-1.3 1.9 0 2.6 1.3 2.6 2.6-1.4 1.2-2.6 0.6-3.3 0 0-0.7-0.7-1.3-0.7-1.3-0.6-0.7-1.2-0.7-1.2-0.7-0.7-0.6-0.7-0.6-0.7-1.3 0 0-1.3-1.9-2.6-1.9 0-1.3-0.7-1.9-1.3-1.9 0-2-0.6-2-0.6-3.9-1.4-0.7-1.4-1.9-1.4-2.6-0.6-0.7 0-1.3 0-1.3-1.9-2-3.8-3.9-5.8-5.8-1.3-0.7-3.2-2.6-5.1-2 0.6 1.3 1.3 2.6 1.9 3.9 0.6 1.3 1.9 1.9 2.6 3.3 1.2 3.2 3.8 5.2 5.2 9 1.9 2 3.2 4.5 4.5 7.7l-1.3-1.2c-1.3-2-2-2.6-2.6-4.5l-1.3-2c-1.3-1.3-1.9-3.8-3.3-5.2-0.6-1.9-1.9-2.6-2.5-4.5-1.3-0.7-1.9-1.9-2.6-2.6-0.6-1.3-1.3-2.6-1.3-3.9 0 0 0.7-0.6 1.3-0.6-1.3-2.6-3.8-3.3-5.8-4.6l0.6 2 0.7 0.6c0 0 0.7 1.3 0.7 2l0.6 0.6 0.6 0.6v0.7c0.7 0.7 1.3 0.7 1.3 0.7l0.7 1.9c1.3 2.6 3.2 5.9 4.5 9.7 3.2 2.6 6.4 5.8 7.1 11 0.7 0 0.7 0 0.7 0.7 1.9 0.6 3.8 0 5.8 0 0.6 0-0.6-0.7-0.6-0.7-0.7-1.3-2-1.9-2.6-2.6v-0.6c0-0.7-0.7-0.7-0.7-0.7 0 0 0-0.6-0.7-1.3 0 0-0.6-0.6-1.2-1.2-0.7-1.3-2-3.3-2.6-4.6l-0.7-0.6v-0.6c0 0-0.7-0.7-1.3-0.7l-0.6-1.3v-0.6c-0.7-0.7-1.4-2-2-3.3 0 0-1.3-1.9 0-2.6 0.6 2.6 2.6 5.2 3.9 7.8l0.7 0.7c0.6 1.2 1.2 1.2 1.2 1.2l0.7 2c1.3 2.6 3.9 5.1 5.9 7.7 0.6 0.6 1.2 1.3 1.9 2h1.3v0.6c1.3 0 2-0.6 3.9-1.3-0.7-0.7 0.7-0.7 0.7-1.3zm-14.4 0c-1.2-1.9-1.9-4.5-3.8-5.8 0 0 0.6 1.3 0.6 2.6 0.6 0.6 1.3 1.9 1.3 2.6 0.7 0 1.3 0.6 1.3 1.2 0.6 0 0.6 0 0.6-0.6zm-10.3-15.5c0 0.6 0.7 0.6 0.7 0.6zm17.5-55.7v1.3h-0.6 0.6z"/>
			<path id="Path 268" fill-rule="evenodd" class="s1" d="m66.2 82.7l0.6-1.3 0.6-0.6c0 0 0 0.6 0.7 0.6v0.7c0 0 0 1.2-0.7 1.2 0 0-0.6 1.4-1.2 2l-2 0.6c-1.3 0.7-2.6 0.7-3.9 0.7-1.9 0-3.9-0.7-5.2-1.3-1.9-0.6-3.3-1.3-3.9-2.6-1.3-0.6-2-1.9-3.2-3.9-0.7-1.2-1.3-2.5-1.3-2.5-0.7-3.3-1.3-4.5-1.3-5.9v-4.5c0-1.9 0-3.9 0.6-5.2 0-1.9 0.7-3.3 0.7-4.5 0.6-1.4 1.3-2.6 1.9-4h-1.3c-1.3 0-2.6 0.7-3.8 0.7-1.3 0.7-2.6 0.7-3.9 1.3 0 0-1.3 1.3-2.6 2.6 0 0-1.9 2-3.3 3.2-1.2 1.4-3.2 2-4.5 3.3-1.9 1.3-3.3 2.6-5.2 3.3-1.9 1.2-3.9 1.9-5.9 2.6-1.2 0.6-3.2 1.2-5.1 1.2-1.9 0-3.9-0.6-5.2-1.2-1.9-0.7-3.2-2-3.8-3.3-1.4-1.3-2-2.6-2.6-4.5-0.7-2-1.4-4-1.4-5.9 0-1.9 0.7-3.9 1.4-5.8 1.2-2 2.6-3.9 3.8-5.8 1.4-1.3 3.3-3.2 5.2-4.6 1.9-1.2 3.9-2.6 5.8-3.2 2.6-1.3 4.5-2 7.1-2.6 2 0 4-0.6 5.9-0.6 1.9 0 3.3 0.6 4.5 1.2 1.4 0.7 2.6 2 3.3 2.6 0.7 1.4 1.3 2.6 1.3 2.6 0.6 2 0.6 2.6 0.6 2.6v1.3h-1.2c-0.7-0.6-1.4-1.9-2-2.5-0.6-0.7-2-0.7-3.2-1.4-1.4-0.6-2.6-0.6-5.2-0.6-2 0-4 0-6.6 0.6-1.9 0.7-3.8 1.4-5.8 2-1.9 1.3-3.8 1.9-5.1 3.2-1.3 1.3-3.2 2.6-3.2 2.6-2 2.6-3.3 3.9-3.3 5.1-0.7 1.4-1.3 2.6-1.3 3.3 0 1.9 0.6 3.3 1.3 5.2l1.3 1.3c0 0 0.6 1.3 1.3 2 0 0 1.9 0.6 2.6 0.6 0 0 1.9 0.6 3.2 0.6 1.9 0 3.9-0.6 5.8-1.2 2-0.7 3.9-1.4 5.8-2.6 2-0.7 4-2 5.2-3.3 2-0.7 3.3-1.9 4-2.6-0.7 0-2 0.7-3.3 0.7h-2.6c-1.9 0.6-3.3 0.6-4.5 0-1.4-0.7-2.6-1.4-2.6-1.4-2-1.2-2.6-1.9-2.6-3.2-0.7-0.6-0.7-1.3-0.7-2.6v-1.3l0.7 0.7c0.6 0.6 0.6 1.3 1.9 1.3 1.3 0.6 2.6 0.6 2.6 0.6 2.6 0.7 4.5 0.7 5.9 0.7h5.2c1.2 0 2.6-0.7 3.8-0.7 1.4 0 2 0 3.3-0.6 3.2-2.6 5.8-5.8 7.7-7.8 1.3-1.2 1.9-2.6 3.3-3.2 0.6-1.3 1.9-2 2.6-3.2 0.6-0.7 1.2-1.4 1.9-2.6 0-0.7 0.7-1.4 0.7-1.4 0-0.6 0-0.6 0.6 0 0 0 1.3 0.7 2 1.4l1.9 1.9c0.7 1.3 0.7 2.6 0.7 3.3v1.9c-0.7 0.7-0.7 1.3-1.4 1.9-0.6 1.3-0.6 2-1.2 3.3-0.7 0.6-0.7 1.2-1.4 1.9l5.2-0.7h2v-0.6h1.3v0.6c0 0.7-0.7 1.3-0.7 1.3-1.2 0-1.9 0.7-3.2 1.3h-2l-1.9 0.7c-0.7 0-1.3 0.6-1.9 0.6l-0.7 1.3c-1.3 2-1.9 3.9-2.6 5.8-0.7 1.4-0.7 2-0.7 3.3 0 0-0.6 1.9-1.2 2.6 0 1.3 0 1.9-0.7 3.3v1.9c0 3.9 0.7 6.5 1.3 8.4 0.6 1.9 1.3 3.9 2.6 5.2 0.6 1.2 2 1.9 3.2 2.6 0.7 0.6 2 1.2 2 1.2h2c0.6 0 1.2 0 1.9-0.6l1.3-0.6 2-0.7zm-16.3-34.3c0 0 0.7-0.7 1.3-1.3 0-0.7 0.6-1.3 0.6-2 0.7-0.6 0.7-1.9 1.4-2.5 0.6-0.7 0.6-1.3 0.6-1.3 1.3-2.6 2.6-3.9 3.9-5.8l-13.6 13.5 3.9-0.6z"/>
			<path id="Path 269" fill-rule="evenodd" class="s1" d="m72.6 71.1c0.7 0 1.3-0.7 2.6-1.3 0.7-1.3 1.9-2 3.2-3.2 1.3-1.4 2.6-3.3 3.9-4.6 1.3-2 2.6-3.2 3.9-5.2l0.7-0.6h0.6v0.6c0 0 0 0.6-0.6 1.3 0 0 0 0.7-0.7 1.3-0.7 1.3-1.9 2-2.6 3.2-0.7 1.4-1.9 2.6-3.3 4-0.6 1.2-1.9 1.9-3.2 3.2-1.2 1.3-1.9 2-3.2 2.6 0 0-1.9 1.3-2.5 1.3 0 0-0.7-0.7-1.4-0.7l-1.2-0.6c-0.7-0.6-0.7-1.3-1.4-2v-3.2c-1.2 1.3-1.9 2.6-2.6 3.2-0.6 0.7-1.9 1.4-2.6 2l-1.9 1.3c-0.7 0-0.7-0.7-0.7-0.7-1.2 0-1.9-0.6-2.6-0.6-0.6-0.6-0.6-1.3-1.2-2v-2.6c0-1.2 0-2.6 0.6-3.8 0.6-1.4 1.3-2.6 2-4 1.2-1.2 1.9-2.6 3.2-3.8 1.3-0.7 2.6-2 3.9-3.3 0.7-0.7 1.9-1.3 3.3-1.9 0.6-0.7 1.9-0.7 1.9-0.7h2.6c0 0 1.3 0.7 1.3 1.3l1.3 1.3c1.9-3.2 3.2-5.8 4.4-8.4 1.4-1.3 1.4-2.6 2-3.2 0.6-1.3 1.3-2.6 2-3.2 0.6-1.4 0.6-2 1.2-2.6v-2l0.7-0.6c0.7 0 1.3 0 1.9 0.6 0 0 0.7 0.6 1.4 1.3 0 1.3 0.6 1.9 0.6 3.9 0 0.6-0.6 1.3-1.3 2.6-0.7 1.3-1.3 3.2-1.9 4.5-1.4 1.9-2 3.2-3.3 5.2-1.3 1.9-2.6 3.8-3.3 5.8-1.2 2-2.5 3.9-3.2 5.2-1.2 2-1.9 3.2-3.2 4.6-0.6 1.2-0.6 2.6-1.3 3.2zm-11.6 0c0.6 0 1.2-0.7 2.6-1.3 0.6-0.6 1.9-2 2.6-3.2 1.2-1.4 2.6-2.6 3.8-4 0.7-1.2 2-3.2 2.6-4.5 0.7-1.3 1.3-1.9 1.3-1.9 0.7-2 0.7-2 0-2 0 0-0.6 0-1.9 0.6-0.6 0.7-1.3 1.4-2.6 2-0.6 1.3-2 2.6-2 2.6-1.9 2-2.6 3.2-3.8 4.6-0.7 1.2-1.4 2.6-2 3.8-0.6 0.7-0.6 2-0.6 2z"/>
			<path id="Path 270" class="s1" d="m88.1 50.3l0.7-0.6c0.7 0 1.3 0.6 1.9 0.6 0 0 1.4 0.7 2 1.3 0.6 0.6 0.6 2 0.6 2.6 0 1.3 0 2-0.6 3.2-0.6 0.7-1.3 2-2 3.3-0.6 0.7-1.2 1.9-1.9 3.3-0.7 1.2-1.3 1.9-1.3 1.9-1.3 1.9-1.3 2.6-1.3 2.6l-0.7 1.3c0 0 2-0.6 2.6-1.3 1.4-0.7 2-1.9 3.3-3.3 1.3-1.2 2.6-2.6 3.9-4.5 1.3-1.3 2.6-3.3 3.9-4.5 1.3-2 1.9-3.3 2.6-5.2 0.7-1.3 1.3-2.6 1.3-2.6 0-2.6 0-3.9-0.6-4.5-0.7-0.7-1.4-1.3-2-2-0.6-0.6-1.3-1.2-1.3-1.2h-0.7-0.6-1.3v-0.7l0.7-0.7c1.2 0 1.9 0 3.2 0.7 1.3 0.7 2 1.3 3.2 1.9 0 0 2 2 2.6 3.3 1.3 1.2 1.3 2.5 1.3 4.5 0 1.3 0 2.5-1.3 4.5-0.6 1.3-1.9 2.6-3.2 4.6-1.3 1.2-3.2 2.6-4.6 4.5-1.9 1.3-3.2 2.6-4.5 3.9-1.9 1.3-3.3 2.6-3.9 3.2-1.3 0.7-2 1.4-2 1.4l-0.6 0.6-2 1.3c-0.6 0-1.2-0.7-1.9-0.7 0 0-0.7-1.2-1.3-1.9 0-0.7-0.6-1.3-0.6-1.9v-2-2c0 0 1.2-1.9 1.2-2.6 0.7-1.2 1.4-1.9 2-3.2 0.6-0.6 1.3-2 1.3-3.2 0.7-0.7 1.3-2 1.3-3.3 0.6-0.7 0.6-1.9 0.6-2.6z"/>
			<path id="Path 271" fill-rule="evenodd" class="s1" d="m125.1 56.8h0.7c0-0.6 0-0.6 0.6 0v1.3c-0.6 0-0.6 0.7-1.3 1.3-1.3 1.3-1.9 2-2.6 3.2-1.3 1.4-2.6 2.6-3.9 4-1.3 1.2-2.6 1.9-3.9 3.2-1.3 1.3-2.6 2-3.2 2.6-1.3 0.6-2.6 1.3-3.9 1.3l-1.9-1.3c-0.7 0-1.3-0.6-1.3-0.6-0.7-1.4-1.3-2.6-1.3-4 0-1.9 0.6-3.2 1.3-4.5 0.6-1.3 1.3-2.6 1.9-3.9 0.7-1.3 1.9-2.6 3.2-3.9 0.7-1.3 2-1.9 3.3-2.6 0.6-1.3 1.9-1.9 1.9-1.9 1.9-0.7 2.6-1.3 2.6-1.3l1.3 0.6c0 0 0.6 0 1.3 0.7 0 0.6 0.7 0.6 0.7 0.6 0 2 0.6 2.6 0.6 3.9l-1.3 1.9c0 1.4-0.7 2-1.9 3.3 0 0-1.4 1.3-2.6 2.6 0 0-2 1.3-2.6 1.9-0.7 0.7-2 1.4-2.6 1.4-0.7 0.6-1.3 0.6-1.3 0.6l-0.7 2c-0.6 0.6-0.6 0.6 0 1.2h0.7c1.3 0 1.9 0 3.2-1.2 1.9-0.7 3.3-2 4.5-3.3 1.4-1.3 3.3-2.6 4.6-3.9 1.3-2 2.6-3.2 3.9-5.2zm-7.8-1.3c-0.7 0-0.7 0.7-0.7 0.7l-1.2 1.2c-0.7 0.7-0.7 0.7-1.4 1.4-0.6 0.6-1.2 1.2-1.2 1.9-1.3 1.3-2.6 3.3-3.3 5.2 1.3-1.3 2.6-1.9 3.9-3.3 1.3-1.2 2-2.6 2.6-3.2 0.6-1.3 1.3-2 1.3-2 0.7-1.2 0-1.9 0-1.9z"/>
			<path id="Path 272" class="s1" d="m132.9 73.7c0 0-1.3-0.7-1.9-1.9-0.7-1.4-1.4-2.6-1.4-4.6l0.7-1.3c0-0.7 0.7-1.3 0.7-1.9 0.6-1.4 0.6-2 1.2-2.6 0 0 0.7-1.4 1.4-2 0.6-2 1.9-3.2 3.2-5.2 0 0-0.7 0-1.3 1.3-1.3 0.7-1.9 1.3-3.3 2.6-1.2 1.3-1.9 2.6-3.2 3.9-1.3 1.3-2.6 3.2-3.9 4.6-0.7 1.2-1.3 2.6-1.9 3.2-1.4 1.3-1.4 2-1.4 2 0 1.2 0 1.2-0.6 1.9l-0.6-0.7-1.4-1.9c-0.6-1.3-0.6-1.9-0.6-1.9v-2.6c1.3-2 2-2.6 2.6-4 0 0 1.3-1.9 2-3.2 0.6-1.3 1.9-2.6 2.6-3.2 0.6-1.4 1.2-2.6 1.2-2.6 0.7-2 0.7-2.6 0.7-3.9l0.7-0.7c0.6 0 0.6 0.7 0.6 0.7 1.3 0.6 1.3 1.3 2 1.9 0 1.3 0.6 2 0.6 3.2 0 0.7 0 1.4-0.6 1.4v1.2l-1.4 1.4 4.6-4.6c0.6-0.6 1.3-1.3 1.9-1.3 0.7-0.7 1.3-1.3 1.3-1.9l2-0.7 0.6-0.6c0 0 0.6 0.6 1.3 0.6 0 0 0.6 0.7 0.6 1.3 0 0 0 0.6 0.7 1.3v1.9c0 0 0 0.7-0.7 2 0 0-1.3 2-1.9 3.2-1.3 1.4-1.9 2.6-2.6 4-0.6 1.2-1.9 1.9-2.6 3.2-0.6 1.3-0.6 2-1.2 2.6v1.3c0 0 1.9-0.7 3.2-1.3 0.6-1.3 1.9-2 3.2-3.9 1.3-1.3 2.6-2.6 3.9-4.5 1.2-1.4 2.6-3.3 3.8-4.6v-0.6h1.4v0.6c0 0 0 0.6-0.7 0.6 0 0.7 0 1.4-0.7 2-0.6 0.6-1.9 2-2.6 3.2-0.6 0.7-1.9 2-3.2 3.3-0.6 1.3-1.9 2.6-3.2 3.9-0.6 0.6-1.9 2-2.6 2.6-1.3 0.6-1.9 1.3-3.2 1.3z"/>
			<path id="Path 273" class="s1" d="m173.7 46.4c0.6 0.7 0.6 0.7 0 0.7v0.6h-0.7c0 0-0.6-0.6-0.6-1.3 0 0-1.3-0.6-1.9-1.2-0.7-0.7-1.3-0.7-2.6-1.3h-3.2-1.4-1.2c-1.4 1.9-2.6 3.2-3.3 5.8-1.3 1.9-2.6 3.9-3.9 5.8-1.3 1.9-2.6 3.9-3.2 5.9-1.4 1.9-2 3.2-2.6 4.5-0.7 1.9-1.4 3.3-1.4 3.9l0.7 1.3c0 0 0.7-0.7 1.9-1.3 1.4-1.3 2-2 3.3-3.2 1.3-1.4 3.3-3.3 4.5-4.6 1.4-2 2.6-3.2 3.3-5.2 0 0 0.7 0 0.7-0.6h0.6c0 0.6 0.6 0.6 0.6 0.6 0 0-0.6 0.6-0.6 1.3 0 0-0.6 0.7-1.3 1.3-0.7 1.3-1.3 2-2.6 3.2-0.7 1.4-1.9 2.6-2.6 4-1.3 1.2-2.6 1.9-3.3 3.2-1.2 1.3-2.6 2-3.2 2.6-1.3 0.6-2 1.3-2.6 1.3-1.3 0-2-0.7-2.6-0.7 0 0-0.6-0.6-1.3-1.2l-0.6-2v-2l0.6-1.9c0.7-1.3 0.7-1.9 1.3-3.3 0.6-1.2 1.3-2.6 2-4.5 1.2-1.3 1.9-2.6 2.6-4.5 1.2-1.4 1.9-3.3 3.2-4.6 0.6-1.9 1.3-3.2 2.6-5.1-1.3 0.6-2 0.6-2.6 0.6h-2.6c-1.3 0-2.6-0.6-3.9-0.6l-1.9-0.7c-0.7-0.6-1.3-1.3-1.3-1.3-0.7-0.6-0.7-1.2-0.7-1.2-0.6-1.4-0.6-2-0.6-2 0 0 0.6 0 1.3 0.6 0 0 1.3 0.7 2.5 1.4 1.4 0.6 2.6 0.6 4.6 0.6h3.9 1.9c2-2.6 3.3-4.6 4-6.5 0.6-1.3 1.2-2.6 1.2-2.6 0-1.3 0-1.3 0.7-1.3 0 0 0.7 0 1.3 0.6 0 0 1.3 0.7 2 2 0 0.6 0.6 1.3 0.6 2.6 0 0.6-0.6 1.3-0.6 2 0 0-0.7 1.9-1.4 2.6h1.4c1.2 0 2.6 0 3.8 0.6 1.3 0 2 0.6 2 0.6 1.3 1.3 1.9 2 2.5 2.6z"/>
			<path id="Path 274" class="s1" d="m170.5 73.7c-0.7 0-1.3-0.7-2-1.3-0.6-0.6-0.6-1.3-1.2-2v-2.6c0 0 0-1.9 0.6-2.6-1.3 2-2 3.3-3.2 4.6 0 0-0.7 0.6-1.4 1.3 0 0-0.6 0.7-1.2 1.3l-1.4 0.6-1.2 0.7c-0.7 0-1.4-0.7-1.4-0.7-0.6 0-1.2-0.6-1.2-0.6-0.7-0.6-0.7-1.3-1.4-2v-1.9c0-0.7 0-1.3 0.7-2.6 0.7-0.7 1.3-1.9 1.9-2.6 0.7-1.3 1.4-2.6 2-3.9 0.6-0.6 1.3-2 2-3.2 0.6-1.4 1.2-2.6 1.2-2.6 0.7-2 1.4-2.6 1.4-2.6 0-1.3 0-1.3 0.6-1.3 0 0 0.6 0.6 1.3 0.6l1.3 1.9c0.6 0.7 0.6 1.4 0.6 2 0 0-0.6 2-1.2 2.6 0 1.3-0.7 2.6-2 3.9-0.6 1.3-1.3 2.6-2 3.9-1.2 1.3-1.9 2-2.6 3.2-0.6 1.4-0.6 2-0.6 2-0.6 1.3-0.6 2-0.6 2 0 0 1.2-0.7 2.6-1.4 0.6-1.2 1.2-1.9 2.6-3.2 1.2-1.3 2.6-2.6 3.8-4.6 1.3-1.2 2.6-3.2 3.9-4.5 0.6-1.9 1.9-3.3 2.6-4.5 0.6-1.4 1.2-2.6 1.2-2.6 0-1.3 0-1.3 0.7-1.3 0 0.6 0.7 0.6 1.3 1.3 0 0 0.6 0.6 1.3 1.2 0.7 0.7 0.7 2 0.7 2 0 1.3-0.7 2-1.4 3.2-0.6 1.4-1.2 2.6-1.9 3.3-0.7 1.3-1.3 2.6-1.9 3.9-1.3 1.3-2 2.6-2.6 3.2-0.6 1.4-0.6 2-0.6 2-0.7 1.3-0.7 2 0 2 0 0 0.6-0.7 1.2-0.7 0.7-0.7 1.3-1.3 2-1.9 0.6-0.7 1.2-1.4 2.6-2.6 0.6-0.7 1.9-2 2.6-3.3 0.6-0.7 1.9-1.9 2.6-3.3 0.6-1.2 1.9-1.9 2.6-3.2l0.6-0.6h0.6v0.6c0 0 0 0.6-0.6 1.3 0 0 0 0.7-0.6 1.3-0.7 1.3-2 2-2.6 3.2-0.7 1.4-2 2.6-3.3 3.3-0.7 1.3-1.9 2.6-3.3 3.9-0.6 1.3-1.9 2-3.2 2.6-0.6 0.6-1.9 1.3-2.5 1.3z"/>
			<path id="Path 275" fill-rule="evenodd" class="s1" d="m205.4 56.8l0.7-0.6h0.6v1.9c0 0-0.6 0.7-1.3 1.3-0.6 1.3-1.3 2-2.5 3.2-0.7 1.4-2 2.6-2.6 4-1.3 1.2-2.6 1.9-3.9 3.2-0.6 1.3-2 2-2.6 2.6-1.3 0.6-2 1.3-2.6 1.3-1.3 0-2-0.7-2.6-0.7 0 0-0.6-0.6-1.3-1.2l-0.7-2v-2c0 0 0-1.2 0.7-2.6 0 0 0.7-1.9 1.3-2.6 0.6-1.2 1.3-2.6 2-3.2 0.6-1.3 1.2-2.6 1.9-3.2 0 0-1.3 0-2.6 0.6-1.3 0-2.6 0.6-3.9 0.6l-0.6-0.6c0 0-1.4 0-1.4-0.6 0 0-0.6-1.4-1.2-2v-3.2c0-1.3 0-3.3 0.6-4.6 0.6-1.9 1.3-3.2 2.6-4.5 0.6-0.6 2-1.9 2-1.9 1.9-1.3 2.6-1.3 2.6-1.3 1.9 0 2.6 0 3.2 0.6 0.6 0.7 0.6 1.4 0.6 2.6v1.3l-0.6 2c-0.6 0.6-0.6 1.2-1.3 1.9 0 0-0.7 1.9-1.3 2.6-0.6 1.3-2 3.2-3.2 4.5 1.2-0.6 2.6-1.3 2.6-1.3 1.9-0.7 2.6-1.3 2.6-1.3 1.2-0.6 1.9-0.6 1.9-0.6 0.7-0.7 0.7-0.7 1.3-1.3 0 0 0.6 0 1.3 0.6l0.7 0.7 1.2 1.2c0.7 0.7 0.7 1.4 0.7 2l-0.7 2c-0.6 0.6-1.2 1.2-1.9 1.9-0.7 1.3-1.3 2.6-1.3 2.6-1.3 1.9-2 3.3-2.6 3.9-1.3 1.3-1.3 2.6-1.3 2.6-1.3 1.3-1.3 2.6-1.3 2.6l1.3 1.3c0 0 0.7-0.7 1.9-1.3 1.4-0.6 2-2 3.3-3.2 1.3-1.4 2.6-3.3 3.9-4.6 1.3-2 2.5-3.2 3.8-5.2zm-19.4-5.8v0.6l0.6 1.3c0 0 0 0.7 0.7 0.7 0.7-1.4 1.3-2.6 1.9-3.3 0.7-1.3 1.4-2.6 1.4-2.6 0.6-1.3 0.6-2.5 1.2-2.5l-0.6-1.3-1.3 1.3-1.9 1.2c-0.7 1.3-0.7 2-1.4 2.6z"/>
			<path id="Path 276" fill-rule="evenodd" class="s1" d="m222.3 56.8h0.6c0-0.6 0.7-0.6 0.7 0v1.3c-0.7 0-0.7 0.7-1.3 1.3-0.6 1.3-2 2-2.6 3.2-1.3 1.4-2.6 2.6-3.9 4-0.7 1.2-1.9 1.9-3.3 3.2-1.2 1.3-2.6 2-3.8 2.6-1.3 0.6-2.6 1.3-3.9 1.3-0.7 0-1.3-0.7-1.9-1.3l-1.3-1.3c-0.7-0.7-1.3-1.9-1.3-3.3 0-1.9 0.6-3.2 1.3-4.5 0.6-1.3 1.3-2.6 1.9-3.9 1.3-1.3 1.9-2.6 3.2-3.9 0.7-1.3 2-1.9 3.2-2.6 0.7-1.3 2-1.9 2.6-1.9 1.4-0.7 2-1.3 2-1.3l1.3 0.6c0 0 0.7 0 1.3 0.7 0 0.6 0.6 0.6 0.6 0.6 0 2 0.7 2.6 0.7 3.9l-0.7 1.9c-0.6 1.4-1.2 2-1.9 3.3-1.3 0.7-1.9 1.3-2.6 2.6-1.3 0.7-1.9 1.3-3.3 1.9-0.6 0.7-1.9 1.4-1.9 1.4-1.3 0.6-1.9 0.6-1.9 0.6-0.7 0.6-0.7 1.3-0.7 1.3v1.3l1.3 0.6c0.7 0 1.3 0 3.2-1.2 1.4-0.7 2.6-2 4-3.3 1.9-1.3 3.2-2.6 4.5-3.9 1.3-2 2.6-3.2 3.9-5.2zm-7.8-1.3l-0.6 0.7c-0.7 0-0.7 0.6-0.7 0.6l-1.3 1.3c-1.3 1.3-1.3 1.9-2 2.6-1.2 1.3-1.9 3.3-3.2 5.2 1.3-1.3 2.6-1.9 3.9-3.3 1.3-1.2 1.9-2.6 1.9-2.6 2-1.9 2-2.6 2-2.6 0.6-1.2 0-1.9 0-1.9z"/>
		</g>
	</g>
</svg>